<svg width="40" height="40" viewBox="0 0 40 40" fill="none" xmlns="http://www.w3.org/2000/svg">
<g id="Icon Close">
<path id="Vector" d="M11.5032 11.5032C11.8255 11.181 12.2625 11 12.7183 11C13.174 11 13.611 11.181 13.9333 11.5032L20.0104 17.5802L26.0874 11.5032C26.4116 11.1901 26.8457 11.0169 27.2963 11.0208C27.7469 11.0247 28.178 11.2055 28.4966 11.5241C28.8153 11.8428 28.996 12.2738 28.9999 12.7244C29.0039 13.1751 28.8306 13.6092 28.5176 13.9333L22.4405 20.0104L28.5176 26.0874C28.8306 26.4116 29.0039 26.8457 28.9999 27.2963C28.996 27.7469 28.8153 28.178 28.4966 28.4966C28.178 28.8153 27.7469 28.996 27.2963 28.9999C26.8457 29.0039 26.4116 28.8306 26.0874 28.5176L20.0104 22.4405L13.9333 28.5176C13.6092 28.8306 13.1751 29.0039 12.7244 28.9999C12.2738 28.996 11.8428 28.8153 11.5241 28.4966C11.2055 28.178 11.0247 27.7469 11.0208 27.2963C11.0169 26.8457 11.1901 26.4116 11.5032 26.0874L17.5802 20.0104L11.5032 13.9333C11.181 13.611 11 13.174 11 12.7183C11 12.2625 11.181 11.8255 11.5032 11.5032Z" fill="black"/>
</g>
</svg>
